<svg xmlns="http://www.w3.org/2000/svg" version="1.1" xmlns:xlink="http://www.w3.org/1999/xlink" xmlns:svgjs="http://svgjs.dev/svgjs" width="1500" height="465" viewBox="0 0 1500 465"><g transform="matrix(1,0,0,1,-0.9090909090909918,-0.5071432341337072)"><svg viewBox="0 0 396 123" data-background-color="#ffffff" preserveAspectRatio="xMidYMid meet" height="465" width="1500" xmlns="http://www.w3.org/2000/svg" xmlns:xlink="http://www.w3.org/1999/xlink"><g id="tight-bounds" transform="matrix(1,0,0,1,0.2400000000000091,0.1341475651579458)"><svg viewBox="0 0 395.52 122.73170486968411" height="122.73170486968411" width="395.52"><g><svg viewBox="0 0 647.750473966056 200.99999999999997" height="122.73170486968411" width="395.52"><g><rect width="5.659585349542914" height="200.99999999999997" x="240.4528193886311" y="0" fill="#383c3c" opacity="1" stroke-width="0" stroke="transparent" fill-opacity="1" class="rect-qz-0" data-fill-palette-color="primary" rx="1%" id="qz-0" data-palette-color="#383c3c"></rect></g><g transform="matrix(1,0,0,1,260.9280731924748,0.4999999999999858)"><svg viewBox="0 0 386.8224007735812 200" height="200" width="386.8224007735812"><g id="textblocktransform"><svg viewBox="0 0 386.8224007735812 200" height="200" width="386.8224007735812" id="textblock"><g><svg viewBox="0 0 386.8224007735812 200" height="200" width="386.8224007735812"><g transform="matrix(1,0,0,1,0,0)"><svg width="386.8224007735812" viewBox="1.7599999999999942 -37.5 298.70000000000005 140.32999999999998" height="200" data-palette-color="#383c3c"><svg></svg><svg></svg><svg></svg><g class="wordmark-text-0" data-fill-palette-color="primary" id="text-0"><path d="M26.88-5.05v5.05h-18.77v-5.05zM9.86-35.55v35.55h-6.3v-35.55zM24.41-20.8v4.98h-16.3v-4.98zM26.76-35.55v5.08h-18.65v-5.08zM37.7-37.5v37.5h-6.06v-37.5zM55.76 0.49v0c-2.62 0-4.883-0.567-6.79-1.7-1.9-1.133-3.363-2.663-4.39-4.59-1.027-1.927-1.54-4.087-1.54-6.48v0-1c0-2.753 0.52-5.15 1.56-7.19 1.047-2.047 2.477-3.63 4.29-4.75 1.813-1.12 3.867-1.68 6.16-1.68v0c2.54 0 4.65 0.547 6.33 1.64 1.673 1.1 2.927 2.623 3.76 4.57 0.827 1.947 1.24 4.197 1.24 6.75v0 2.61h-20.43v-4.37h14.45v-0.46c-0.033-1.027-0.23-1.987-0.59-2.88-0.353-0.9-0.917-1.627-1.69-2.18-0.773-0.553-1.803-0.83-3.09-0.83v0c-1.287 0-2.37 0.363-3.25 1.09-0.88 0.727-1.547 1.743-2 3.05-0.453 1.313-0.68 2.857-0.68 4.63v0 1c0 1.5 0.277 2.843 0.83 4.03 0.553 1.187 1.357 2.127 2.41 2.82 1.06 0.693 2.323 1.04 3.79 1.04v0c1.413 0 2.67-0.277 3.77-0.83 1.1-0.553 2.047-1.353 2.84-2.4v0l3.18 3.18c-0.833 1.253-2.083 2.387-3.75 3.4-1.667 1.02-3.803 1.53-6.41 1.53zM76.98-37.5v37.5h-6.08v-37.5zM93.36-26.42l-11.43 12.8-6.37 6.47-1.61-5.06 4.81-5.98 7.3-8.23zM87.33 0l-8.4-12.33 3.83-4.2 11.6 16.53zM109.3-26.42v4.47h-14.99v-4.47zM98.56-32.89h6.05v25.44c0 0.813 0.117 1.43 0.35 1.85 0.227 0.413 0.55 0.693 0.97 0.84 0.427 0.147 0.917 0.22 1.47 0.22v0c0.407 0 0.797-0.023 1.17-0.07 0.373-0.053 0.673-0.103 0.9-0.15v0 4.66c-0.487 0.167-1.05 0.307-1.69 0.42-0.647 0.113-1.4 0.17-2.26 0.17v0c-1.353 0-2.553-0.243-3.6-0.73-1.053-0.493-1.877-1.287-2.47-2.38-0.593-1.1-0.89-2.563-0.89-4.39v0zM119.8-21.24v21.24h-6.05v-26.42h5.76zM127.81-26.59l-0.05 5.74c-0.373-0.067-0.77-0.117-1.19-0.15-0.413-0.027-0.823-0.04-1.23-0.04v0c-1.333 0-2.443 0.24-3.33 0.72-0.887 0.48-1.557 1.163-2.01 2.05-0.46 0.887-0.73 1.93-0.81 3.13v0l-1.39 0.03c0-2.233 0.293-4.237 0.88-6.01 0.587-1.773 1.463-3.18 2.63-4.22 1.173-1.04 2.64-1.56 4.4-1.56v0c0.34 0 0.723 0.03 1.15 0.09 0.42 0.067 0.737 0.14 0.95 0.22zM129.86-12.94v-0.51c0-2.573 0.487-4.87 1.46-6.89 0.98-2.013 2.383-3.61 4.21-4.79 1.833-1.18 4.037-1.77 6.61-1.77v0c2.6 0 4.82 0.59 6.66 1.77 1.84 1.18 3.247 2.777 4.22 4.79 0.967 2.02 1.45 4.317 1.45 6.89v0 0.51c0 2.553-0.483 4.843-1.45 6.87-0.973 2.027-2.373 3.627-4.2 4.8-1.833 1.173-4.043 1.76-6.63 1.76v0c-2.587 0-4.8-0.587-6.64-1.76-1.84-1.173-3.25-2.773-4.23-4.8-0.973-2.027-1.46-4.317-1.46-6.87zM135.91-13.45v0.51c0 1.56 0.22 2.99 0.66 4.29 0.44 1.293 1.12 2.33 2.04 3.11 0.92 0.78 2.113 1.17 3.58 1.17v0c1.447 0 2.63-0.39 3.55-1.17 0.92-0.78 1.597-1.817 2.03-3.11 0.427-1.3 0.64-2.73 0.64-4.29v0-0.51c0-1.547-0.213-2.97-0.64-4.27-0.433-1.307-1.113-2.353-2.04-3.14-0.927-0.793-2.123-1.19-3.59-1.19v0c-1.447 0-2.63 0.397-3.55 1.19-0.92 0.787-1.597 1.833-2.03 3.14-0.433 1.3-0.65 2.723-0.65 4.27zM165.36-20.78v20.78h-6.06v-26.42h5.69zM164.28-14.16l-1.95 0.02c0.013-2.553 0.46-4.787 1.34-6.7 0.88-1.913 2.11-3.403 3.69-4.47 1.58-1.06 3.42-1.59 5.52-1.59v0c1.707 0 3.187 0.32 4.44 0.96 1.253 0.64 2.23 1.683 2.93 3.13 0.7 1.44 1.05 3.37 1.05 5.79v0 17.02h-6.08v-17.07c0-1.22-0.177-2.187-0.53-2.9-0.347-0.713-0.867-1.223-1.56-1.53-0.693-0.3-1.533-0.45-2.52-0.45v0c-1.013 0-1.907 0.2-2.68 0.6-0.773 0.4-1.433 0.957-1.98 1.67-0.54 0.72-0.953 1.55-1.24 2.49-0.287 0.947-0.43 1.957-0.43 3.03zM193.68-26.42v26.42h-6.06v-26.42zM187.23-33.33v0c0-0.927 0.3-1.693 0.9-2.3 0.607-0.613 1.447-0.92 2.52-0.92v0c1.073 0 1.92 0.307 2.54 0.92 0.62 0.607 0.93 1.373 0.93 2.3v0c0 0.913-0.31 1.677-0.93 2.29-0.62 0.607-1.467 0.91-2.54 0.91v0c-1.073 0-1.913-0.303-2.52-0.91-0.6-0.613-0.9-1.377-0.9-2.29zM210.89-4.37v0c0.94 0 1.793-0.19 2.56-0.57 0.767-0.387 1.377-0.913 1.83-1.58 0.46-0.667 0.713-1.43 0.76-2.29v0h5.71c-0.047 1.74-0.56 3.31-1.54 4.71-0.973 1.4-2.267 2.513-3.88 3.34-1.607 0.833-3.403 1.25-5.39 1.25v0c-2.687 0-4.92-0.6-6.7-1.8-1.787-1.193-3.12-2.797-4-4.81-0.873-2.007-1.31-4.23-1.31-6.67v0-0.83c0-2.447 0.437-4.673 1.31-6.68 0.88-2.013 2.213-3.617 4-4.81 1.78-1.193 4.013-1.79 6.7-1.79v0c2.133 0 4 0.417 5.6 1.25 1.607 0.84 2.863 2.01 3.77 3.51 0.913 1.493 1.393 3.243 1.44 5.25v0h-5.71c-0.047-0.947-0.28-1.81-0.7-2.59-0.413-0.78-0.997-1.403-1.75-1.87-0.76-0.467-1.67-0.7-2.73-0.7v0c-1.56 0-2.767 0.407-3.62 1.22-0.853 0.82-1.443 1.87-1.77 3.15-0.327 1.287-0.49 2.64-0.49 4.06v0 0.83c0 1.433 0.16 2.79 0.48 4.07 0.313 1.287 0.903 2.333 1.77 3.14 0.86 0.807 2.08 1.21 3.66 1.21zM246.68-4.86v4.86h-19.68v-4.86zM246.17-22.66l-17.09 22.66h-3.91v-3.91l16.99-22.51h4.01zM243.87-26.42v4.89h-18.41v-4.89zM257.37-20.78v20.78h-6.05v-26.42h5.69zM256.3-14.16l-1.95 0.02c0.013-2.553 0.46-4.787 1.34-6.7 0.88-1.913 2.11-3.403 3.69-4.47 1.573-1.06 3.41-1.59 5.51-1.59v0c1.713 0 3.197 0.32 4.45 0.96 1.253 0.64 2.23 1.683 2.93 3.13 0.7 1.44 1.05 3.37 1.05 5.79v0 17.02h-6.08v-17.07c0-1.22-0.177-2.187-0.53-2.9-0.347-0.713-0.867-1.223-1.56-1.53-0.693-0.3-1.537-0.45-2.53-0.45v0c-1.007 0-1.897 0.2-2.67 0.6-0.773 0.4-1.433 0.957-1.98 1.67-0.547 0.72-0.96 1.55-1.24 2.49-0.287 0.947-0.43 1.957-0.43 3.03zM286.89-2.91l7.1-23.51h6.47l-10.57 30.42c-0.24 0.667-0.557 1.383-0.95 2.15-0.393 0.767-0.903 1.493-1.53 2.18-0.627 0.68-1.407 1.24-2.34 1.68-0.933 0.44-2.06 0.66-3.38 0.66v0c-0.36 0-0.707-0.02-1.04-0.06-0.333-0.04-0.653-0.093-0.96-0.16-0.313-0.067-0.617-0.14-0.91-0.22v0-4.66c0.167 0.013 0.363 0.03 0.59 0.05 0.227 0.013 0.413 0.02 0.56 0.02v0c1.447 0 2.547-0.26 3.3-0.78 0.747-0.52 1.323-1.407 1.73-2.66v0zM283.06-26.42l6.12 19.56 1.08 6.54-4.2 0.95-9.55-27.05z" fill="#383c3c" fill-rule="nonzero" stroke="none" stroke-width="1" stroke-linecap="butt" stroke-linejoin="miter" stroke-miterlimit="10" stroke-dasharray="" stroke-dashoffset="0" font-family="none" font-weight="none" font-size="none" text-anchor="none" style="mix-blend-mode: normal" data-fill-palette-color="primary" opacity="1"></path><path transform="translate(0,51.17)" d="M17.75-7.2v0c0-0.553-0.143-1.06-0.43-1.52-0.287-0.453-0.837-0.877-1.65-1.27-0.813-0.387-2.01-0.743-3.59-1.07v0c-1.867-0.393-3.513-0.913-4.94-1.56-1.427-0.653-2.533-1.493-3.32-2.52-0.787-1.02-1.18-2.273-1.18-3.76v0c0-1.427 0.41-2.747 1.23-3.96 0.82-1.213 2-2.19 3.54-2.93 1.54-0.74 3.36-1.11 5.46-1.11v0c2.213 0 4.117 0.37 5.71 1.11 1.593 0.74 2.817 1.74 3.67 3 0.86 1.26 1.29 2.687 1.29 4.28v0h-6.06c0-1.04-0.387-1.953-1.16-2.74-0.773-0.793-1.933-1.19-3.48-1.19v0c-0.96 0-1.76 0.157-2.4 0.47-0.647 0.307-1.127 0.703-1.44 1.19-0.32 0.493-0.48 1.03-0.48 1.61v0c0 0.573 0.16 1.07 0.48 1.49 0.313 0.427 0.857 0.803 1.63 1.13 0.773 0.327 1.86 0.633 3.26 0.92v0c2.02 0.427 3.763 0.96 5.23 1.6 1.46 0.647 2.587 1.493 3.38 2.54 0.787 1.053 1.18 2.383 1.18 3.99v0c0 1.547-0.443 2.923-1.33 4.13-0.887 1.207-2.13 2.15-3.73 2.83-1.607 0.687-3.5 1.03-5.68 1.03v0c-2.427 0-4.47-0.433-6.13-1.3-1.66-0.86-2.917-1.96-3.77-3.3-0.853-1.347-1.28-2.743-1.28-4.19v0h5.83c0.067 1.04 0.363 1.877 0.89 2.51 0.533 0.64 1.203 1.1 2.01 1.38 0.8 0.287 1.64 0.43 2.52 0.43v0c1.047 0 1.913-0.137 2.6-0.41 0.693-0.28 1.223-0.66 1.59-1.14 0.367-0.48 0.55-1.037 0.55-1.67zM36.4-2.91l7.11-23.51h6.47l-10.58 30.42c-0.24 0.667-0.557 1.383-0.95 2.15-0.387 0.767-0.893 1.493-1.52 2.18-0.627 0.68-1.41 1.24-2.35 1.68-0.933 0.44-2.06 0.66-3.38 0.66v0c-0.36 0-0.707-0.02-1.04-0.06-0.333-0.04-0.653-0.093-0.96-0.16-0.307-0.067-0.607-0.14-0.9-0.22v0-4.66c0.16 0.013 0.353 0.03 0.58 0.05 0.227 0.013 0.413 0.02 0.56 0.02v0c1.453 0 2.553-0.26 3.3-0.78 0.747-0.52 1.323-1.407 1.73-2.66v0zM32.57-26.42l6.13 19.56 1.07 6.54-4.2 0.95-9.54-27.05zM68.02-7.2v0c0-0.553-0.143-1.06-0.43-1.52-0.287-0.453-0.837-0.877-1.65-1.27-0.813-0.387-2.01-0.743-3.59-1.07v0c-1.867-0.393-3.513-0.913-4.94-1.56-1.427-0.653-2.533-1.493-3.32-2.52-0.787-1.02-1.18-2.273-1.18-3.76v0c0-1.427 0.41-2.747 1.23-3.96 0.82-1.213 2-2.19 3.54-2.93 1.54-0.74 3.357-1.11 5.45-1.11v0c2.22 0 4.127 0.37 5.72 1.11 1.593 0.74 2.817 1.74 3.67 3 0.853 1.26 1.28 2.687 1.28 4.28v0h-6.05c0-1.04-0.387-1.953-1.16-2.74-0.773-0.793-1.933-1.19-3.48-1.19v0c-0.96 0-1.76 0.157-2.4 0.47-0.647 0.307-1.127 0.703-1.44 1.19-0.32 0.493-0.48 1.03-0.48 1.61v0c0 0.573 0.16 1.07 0.48 1.49 0.313 0.427 0.857 0.803 1.63 1.13 0.773 0.327 1.86 0.633 3.26 0.92v0c2.02 0.427 3.76 0.96 5.22 1.6 1.467 0.647 2.597 1.493 3.39 2.54 0.787 1.053 1.18 2.383 1.18 3.99v0c0 1.547-0.443 2.923-1.33 4.13-0.887 1.207-2.133 2.15-3.74 2.83-1.6 0.687-3.49 1.03-5.67 1.03v0c-2.427 0-4.47-0.433-6.13-1.3-1.66-0.86-2.917-1.96-3.77-3.3-0.853-1.347-1.28-2.743-1.28-4.19v0h5.83c0.067 1.04 0.363 1.877 0.89 2.51 0.533 0.64 1.2 1.1 2 1.38 0.807 0.287 1.65 0.43 2.53 0.43v0c1.04 0 1.907-0.137 2.6-0.41 0.693-0.28 1.223-0.66 1.59-1.14 0.367-0.48 0.55-1.037 0.55-1.67zM91.26-26.42v4.47h-14.99v-4.47zM80.52-32.89h6.05v25.44c0 0.813 0.113 1.43 0.34 1.85 0.233 0.413 0.56 0.693 0.98 0.84 0.427 0.147 0.917 0.22 1.47 0.22v0c0.407 0 0.797-0.023 1.17-0.07 0.373-0.053 0.673-0.103 0.9-0.15v0 4.66c-0.487 0.167-1.053 0.307-1.7 0.42-0.64 0.113-1.39 0.17-2.25 0.17v0c-1.353 0-2.557-0.243-3.61-0.73-1.047-0.493-1.867-1.287-2.46-2.38-0.593-1.1-0.89-2.563-0.89-4.39v0zM107.4 0.49v0c-2.62 0-4.883-0.567-6.79-1.7-1.907-1.133-3.37-2.663-4.39-4.59-1.027-1.927-1.54-4.087-1.54-6.48v0-1c0-2.753 0.52-5.15 1.56-7.19 1.04-2.047 2.467-3.63 4.28-4.75 1.82-1.12 3.877-1.68 6.17-1.68v0c2.54 0 4.647 0.547 6.32 1.64 1.68 1.1 2.933 2.623 3.76 4.57 0.833 1.947 1.25 4.197 1.25 6.75v0 2.61h-20.44v-4.37h14.46v-0.46c-0.033-1.027-0.23-1.987-0.59-2.88-0.36-0.9-0.927-1.627-1.7-2.18-0.773-0.553-1.8-0.83-3.08-0.83v0c-1.287 0-2.37 0.363-3.25 1.09-0.88 0.727-1.547 1.743-2 3.05-0.46 1.313-0.69 2.857-0.69 4.63v0 1c0 1.5 0.277 2.843 0.83 4.03 0.553 1.187 1.36 2.127 2.42 2.82 1.06 0.693 2.32 1.04 3.78 1.04v0c1.42 0 2.68-0.277 3.78-0.83 1.093-0.553 2.04-1.353 2.84-2.4v0l3.17 3.18c-0.827 1.253-2.073 2.387-3.74 3.4-1.673 1.02-3.81 1.53-6.41 1.53zM128.59-21.02v21.02h-6.08v-26.42h5.71zM127.61-14.16l-2.07 0.02c0-2.453 0.393-4.64 1.18-6.56 0.793-1.92 1.97-3.433 3.53-4.54 1.56-1.107 3.503-1.66 5.83-1.66v0c2.393 0 4.363 0.723 5.91 2.17 1.547 1.447 2.32 3.823 2.32 7.13v0 17.6h-6.05v-17.04c0-1.24-0.193-2.217-0.58-2.93-0.38-0.713-0.917-1.223-1.61-1.53-0.693-0.3-1.52-0.45-2.48-0.45v0c-1.087 0-2.01 0.2-2.77 0.6-0.753 0.4-1.367 0.957-1.84 1.67-0.473 0.72-0.82 1.55-1.04 2.49-0.22 0.947-0.33 1.957-0.33 3.03zM143.92-15.58l-2.83 0.59c0.013-2.167 0.413-4.153 1.2-5.96 0.78-1.807 1.933-3.25 3.46-4.33 1.533-1.08 3.423-1.62 5.67-1.62v0c1.787 0 3.323 0.327 4.61 0.98 1.287 0.66 2.28 1.71 2.98 3.15 0.7 1.44 1.05 3.35 1.05 5.73v0 17.04h-6.08v-17.09c0-1.287-0.19-2.283-0.57-2.99-0.387-0.707-0.927-1.197-1.62-1.47-0.687-0.267-1.503-0.4-2.45-0.4v0c-0.893 0-1.68 0.163-2.36 0.49-0.673 0.327-1.233 0.78-1.68 1.36-0.447 0.573-0.79 1.247-1.03 2.02-0.233 0.773-0.35 1.607-0.35 2.5z" fill="#1c4b82" fill-rule="nonzero" stroke="none" stroke-width="1" stroke-linecap="butt" stroke-linejoin="miter" stroke-miterlimit="10" stroke-dasharray="" stroke-dashoffset="0" font-family="none" font-weight="none" font-size="none" text-anchor="none" style="mix-blend-mode: normal" data-fill-palette-color="secondary" opacity="1"></path><path transform="translate(0,102.34)" d="M1.88-12.94v-0.51c0-2.573 0.487-4.87 1.46-6.89 0.98-2.013 2.387-3.61 4.22-4.79 1.827-1.18 4.027-1.77 6.6-1.77v0c2.607 0 4.83 0.59 6.67 1.77 1.833 1.18 3.237 2.777 4.21 4.79 0.967 2.02 1.45 4.317 1.45 6.89v0 0.51c0 2.553-0.483 4.843-1.45 6.87-0.973 2.027-2.373 3.627-4.2 4.8-1.833 1.173-4.043 1.76-6.63 1.76v0c-2.587 0-4.8-0.587-6.64-1.76-1.84-1.173-3.25-2.773-4.23-4.8-0.973-2.027-1.46-4.317-1.46-6.87zM7.93-13.45v0.51c0 1.56 0.22 2.99 0.66 4.29 0.44 1.293 1.12 2.33 2.04 3.11 0.92 0.78 2.113 1.17 3.58 1.17v0c1.447 0 2.63-0.39 3.55-1.17 0.92-0.78 1.597-1.817 2.03-3.11 0.427-1.3 0.64-2.73 0.64-4.29v0-0.51c0-1.547-0.213-2.97-0.64-4.27-0.433-1.307-1.113-2.353-2.04-3.14-0.927-0.793-2.123-1.19-3.59-1.19v0c-1.447 0-2.63 0.397-3.55 1.19-0.92 0.787-1.597 1.833-2.03 3.14-0.433 1.3-0.65 2.723-0.65 4.27zM42.24-4.37v0c0.94 0 1.793-0.19 2.56-0.57 0.767-0.387 1.377-0.913 1.83-1.58 0.453-0.667 0.707-1.43 0.76-2.29v0h5.71c-0.047 1.74-0.56 3.31-1.54 4.71-0.973 1.4-2.267 2.513-3.88 3.34-1.613 0.833-3.41 1.25-5.39 1.25v0c-2.687 0-4.923-0.6-6.71-1.8-1.78-1.193-3.11-2.797-3.99-4.81-0.88-2.007-1.32-4.23-1.32-6.67v0-0.83c0-2.447 0.44-4.673 1.32-6.68 0.88-2.013 2.21-3.617 3.99-4.81 1.787-1.193 4.023-1.79 6.71-1.79v0c2.127 0 3.993 0.417 5.6 1.25 1.6 0.84 2.857 2.01 3.77 3.51 0.913 1.493 1.393 3.243 1.44 5.25v0h-5.71c-0.053-0.947-0.287-1.81-0.7-2.59-0.413-0.78-1-1.403-1.76-1.87-0.753-0.467-1.66-0.7-2.72-0.7v0c-1.56 0-2.767 0.407-3.62 1.22-0.86 0.82-1.45 1.87-1.77 3.15-0.327 1.287-0.49 2.64-0.49 4.06v0 0.83c0 1.433 0.157 2.79 0.47 4.07 0.32 1.287 0.91 2.333 1.77 3.14 0.867 0.807 2.09 1.21 3.67 1.21zM69.24 0.49v0c-2.62 0-4.883-0.567-6.79-1.7-1.907-1.133-3.37-2.663-4.39-4.59-1.027-1.927-1.54-4.087-1.54-6.48v0-1c0-2.753 0.52-5.15 1.56-7.19 1.04-2.047 2.47-3.63 4.29-4.75 1.813-1.12 3.867-1.68 6.16-1.68v0c2.54 0 4.647 0.547 6.32 1.64 1.68 1.1 2.933 2.623 3.76 4.57 0.833 1.947 1.25 4.197 1.25 6.75v0 2.61h-20.44v-4.37h14.46v-0.46c-0.033-1.027-0.23-1.987-0.59-2.88-0.36-0.9-0.927-1.627-1.7-2.18-0.773-0.553-1.8-0.83-3.08-0.83v0c-1.287 0-2.37 0.363-3.25 1.09-0.88 0.727-1.547 1.743-2 3.05-0.46 1.313-0.69 2.857-0.69 4.63v0 1c0 1.5 0.277 2.843 0.83 4.03 0.553 1.187 1.36 2.127 2.42 2.82 1.06 0.693 2.32 1.04 3.78 1.04v0c1.42 0 2.68-0.277 3.78-0.83 1.093-0.553 2.04-1.353 2.84-2.4v0l3.17 3.18c-0.827 1.253-2.073 2.387-3.74 3.4-1.673 1.02-3.81 1.53-6.41 1.53zM90.36-20.78v20.78h-6.06v-26.42h5.69zM89.28-14.16l-1.95 0.02c0.013-2.553 0.46-4.787 1.34-6.7 0.88-1.913 2.11-3.403 3.69-4.47 1.58-1.06 3.42-1.59 5.52-1.59v0c1.707 0 3.187 0.32 4.44 0.96 1.253 0.64 2.23 1.683 2.93 3.13 0.7 1.44 1.05 3.37 1.05 5.79v0 17.02h-6.08v-17.07c0-1.22-0.177-2.187-0.53-2.9-0.347-0.713-0.867-1.223-1.56-1.53-0.693-0.3-1.533-0.45-2.52-0.45v0c-1.013 0-1.907 0.2-2.68 0.6-0.773 0.4-1.433 0.957-1.98 1.67-0.54 0.72-0.953 1.55-1.24 2.49-0.287 0.947-0.43 1.957-0.43 3.03zM118.68-26.42v26.42h-6.06v-26.42zM112.23-33.33v0c0-0.927 0.3-1.693 0.9-2.3 0.607-0.613 1.447-0.92 2.52-0.92v0c1.073 0 1.92 0.307 2.54 0.92 0.62 0.607 0.93 1.373 0.93 2.3v0c0 0.913-0.31 1.677-0.93 2.29-0.62 0.607-1.467 0.91-2.54 0.91v0c-1.073 0-1.913-0.303-2.52-0.91-0.6-0.613-0.9-1.377-0.9-2.29zM139.87-5.42v-12.43c0-1.367-0.38-2.457-1.14-3.27-0.753-0.813-1.897-1.22-3.43-1.22v0c-0.907 0-1.703 0.16-2.39 0.48-0.687 0.313-1.217 0.74-1.59 1.28-0.373 0.533-0.56 1.143-0.56 1.83v0h-6.05c0-1.413 0.447-2.743 1.34-3.99 0.893-1.247 2.16-2.253 3.8-3.02 1.633-0.76 3.563-1.14 5.79-1.14v0c1.987 0 3.753 0.333 5.3 1 1.547 0.667 2.763 1.673 3.65 3.02 0.887 1.353 1.33 3.047 1.33 5.08v0 11.65c0 1.233 0.09 2.323 0.27 3.27 0.18 0.947 0.433 1.767 0.76 2.46v0 0.42h-6.2c-0.28-0.633-0.497-1.457-0.65-2.47-0.153-1.007-0.23-1.99-0.23-2.95zM140.75-16.09l0.05 3.74h-4.15c-2.153 0-3.77 0.393-4.85 1.18-1.08 0.787-1.62 1.857-1.62 3.21v0c0 1.04 0.357 1.907 1.07 2.6 0.713 0.693 1.723 1.04 3.03 1.04v0c1.187 0 2.223-0.24 3.11-0.72 0.887-0.48 1.583-1.073 2.09-1.78 0.5-0.713 0.76-1.377 0.78-1.99v0l1.93 2.71c-0.2 0.667-0.53 1.377-0.99 2.13-0.467 0.76-1.077 1.477-1.83 2.15-0.76 0.673-1.657 1.227-2.69 1.66-1.033 0.433-2.233 0.65-3.6 0.65v0c-1.727 0-3.263-0.343-4.61-1.03-1.353-0.68-2.417-1.62-3.19-2.82-0.773-1.193-1.16-2.54-1.16-4.04v0c0-2.8 1.05-4.947 3.15-6.44 2.1-1.5 5.08-2.25 8.94-2.25v0zM158.01-20.78v20.78h-6.06v-26.42h5.69zM156.93-14.16l-1.95 0.02c0.013-2.553 0.46-4.787 1.34-6.7 0.88-1.913 2.11-3.403 3.69-4.47 1.58-1.06 3.42-1.59 5.52-1.59v0c1.707 0 3.187 0.32 4.44 0.96 1.253 0.64 2.23 1.683 2.93 3.13 0.7 1.44 1.05 3.37 1.05 5.79v0 17.02h-6.08v-17.07c0-1.22-0.173-2.187-0.52-2.9-0.353-0.713-0.877-1.223-1.57-1.53-0.687-0.3-1.527-0.45-2.52-0.45v0c-1.013 0-1.907 0.2-2.68 0.6-0.773 0.4-1.43 0.957-1.97 1.67-0.547 0.72-0.963 1.55-1.25 2.49-0.287 0.947-0.43 1.957-0.43 3.03zM186.33-26.42v26.42h-6.06v-26.42zM179.88-33.33v0c0-0.927 0.303-1.693 0.91-2.3 0.6-0.613 1.437-0.92 2.51-0.92v0c1.073 0 1.92 0.307 2.54 0.92 0.62 0.607 0.93 1.373 0.93 2.3v0c0 0.913-0.31 1.677-0.93 2.29-0.62 0.607-1.467 0.91-2.54 0.91v0c-1.073 0-1.91-0.303-2.51-0.91-0.607-0.613-0.91-1.377-0.91-2.29zM207.52-5.42v-12.43c0-1.367-0.38-2.457-1.14-3.27-0.753-0.813-1.897-1.22-3.43-1.22v0c-0.907 0-1.703 0.16-2.39 0.48-0.68 0.313-1.21 0.74-1.59 1.28-0.373 0.533-0.56 1.143-0.56 1.83v0h-6.05c0-1.413 0.447-2.743 1.34-3.99 0.893-1.247 2.16-2.253 3.8-3.02 1.633-0.76 3.567-1.14 5.8-1.14v0c1.98 0 3.743 0.333 5.29 1 1.547 0.667 2.763 1.673 3.65 3.02 0.887 1.353 1.33 3.047 1.33 5.08v0 11.65c0 1.233 0.09 2.323 0.27 3.27 0.18 0.947 0.433 1.767 0.76 2.46v0 0.42h-6.2c-0.28-0.633-0.497-1.457-0.65-2.47-0.153-1.007-0.23-1.99-0.23-2.95zM208.4-16.09l0.05 3.74h-4.15c-2.153 0-3.77 0.393-4.85 1.18-1.08 0.787-1.62 1.857-1.62 3.21v0c0 1.04 0.357 1.907 1.07 2.6 0.72 0.693 1.73 1.04 3.03 1.04v0c1.187 0 2.223-0.24 3.11-0.72 0.887-0.48 1.583-1.073 2.09-1.78 0.507-0.713 0.767-1.377 0.78-1.99v0l1.93 2.71c-0.193 0.667-0.523 1.377-0.99 2.13-0.467 0.76-1.077 1.477-1.83 2.15-0.76 0.673-1.657 1.227-2.69 1.66-1.033 0.433-2.233 0.65-3.6 0.65v0c-1.727 0-3.263-0.343-4.61-1.03-1.353-0.68-2.417-1.62-3.19-2.82-0.773-1.193-1.16-2.54-1.16-4.04v0c0-2.8 1.05-4.947 3.15-6.44 2.1-1.5 5.08-2.25 8.94-2.25v0z" fill="#3c83c5" fill-rule="nonzero" stroke="none" stroke-width="1" stroke-linecap="butt" stroke-linejoin="miter" stroke-miterlimit="10" stroke-dasharray="" stroke-dashoffset="0" font-family="none" font-weight="none" font-size="none" text-anchor="none" style="mix-blend-mode: normal" data-fill-palette-color="accent" opacity="1"></path></g></svg></g></svg></g></svg></g></svg></g><g transform="matrix(1,0,0,1,0,0.5)"><svg viewBox="0 0 225.63715093433026 199.99999999999997" height="199.99999999999997" width="225.63715093433026"><g><svg xmlns="http://www.w3.org/2000/svg" xmlns:xlink="http://www.w3.org/1999/xlink" version="1.1" x="0" y="0" viewBox="0 0 99.99900073683115 88.63699999999999" enable-background="new 0 0 100 88.637" xml:space="preserve" width="225.63715093433026" height="199.99999999999997" class="icon-icon-0" data-fill-palette-color="accent" id="icon-0"><path fill="#3c83c5" d="M97.728 0H2.273C1.017 0 0 1.017 0 2.273v68.208c0 0.604 0.24 1.183 0.668 1.609 0.426 0.426 1.003 0.663 1.605 0.663 0.002 0 0.004 0 0.006 0l8.075-0.024c-0.608 1.969-1.219 4.006-1.793 6.018-0.459 1.602-0.267 3.289 0.546 4.749 0.81 1.461 2.144 2.517 3.751 2.975 0.521 0.155 1.112 0.239 1.711 0.239 1.378 0 2.679-0.462 3.735-1.249l-0.091 0.501c-0.222 1.234 0.599 2.417 1.835 2.639 0.135 0.024 0.271 0.036 0.404 0.036 1.079 0 2.038-0.771 2.235-1.871L26.8 63.896c0.209-1.159-0.501-2.284-1.638-2.595-1.143-0.304-2.319 0.3-2.73 1.4l-1.782 4.787c-1.385 3.522-3.101 8.74-4.443 13.441-0.213 0.746-0.895 1.234-1.638 1.234-0.153 0-0.311-0.019-0.468-0.067-0.905-0.257-1.429-1.198-1.169-2.104 0.732-2.57 3.434-11.736 5.349-16.5 0.943-2.339 1.882-4.248 2.672-5.042 2.694-2.694 5.447-2.771 5.75-2.771h11.364c0.004 0 0.007 0 0.011 0h3.389c0 0 0.006 0 0.009 0h6.818c0.004 0 0.006 0 0.011 0h3.736l10.853-13.023c0.338-0.404 0.821-0.613 1.308-0.613 0.386 0 0.774 0.129 1.094 0.396 0.724 0.604 0.821 1.678 0.218 2.401L54.148 58.479c-0.324 0.391-0.804 0.612-1.31 0.612 0 0-0.225 0-0.57 0-0.335 0-0.788 0-1.274 0h-5.615c-0.674 0-1.316 0.3-1.747 0.819-0.433 0.52-0.61 1.203-0.488 1.866l4.617 25c0.202 1.095 1.158 1.86 2.232 1.86 0.138 0 0.275-0.012 0.415-0.038 1.234-0.229 2.051-1.414 1.822-2.647l-2.437-13.197h47.934c1.256 0 2.272-1.017 2.272-2.272V2.273C100 1.017 98.983 0 97.728 0zM95.454 68.209H48.953l-0.844-4.572h4.16 0.57c1.859 0 3.608-0.817 4.801-2.246l11.363-13.637c1.07-1.282 1.576-2.903 1.425-4.567-0.15-1.66-0.938-3.165-2.222-4.235C67.079 38.015 65.658 37.5 64.2 37.5c-1.86 0-3.611 0.821-4.801 2.25l-9.488 11.386h-0.868-0.004-0.746-6.818-0.739-0.006-1.914-0.004-0.746H26.702c-2.35 0-5.939 1.078-8.964 4.102-0.521 0.523-1.7 1.7-3.697 6.627-0.573 1.409-1.381 3.702-2.266 6.398-0.138-0.024-0.264-0.082-0.411-0.082-0.002 0-0.004 0-0.007 0l-6.812 0.021V4.545h90.909V68.209z" data-fill-palette-color="accent"></path><path fill="#3c83c5" d="M39.331 17.951h29.623c1.256 0 2.272-1.017 2.272-2.273 0-1.256-1.017-2.272-2.272-2.272H39.331c-1.256 0-2.273 1.017-2.273 2.272C37.058 16.935 38.075 17.951 39.331 17.951z" data-fill-palette-color="accent"></path><path fill="#3c83c5" d="M51.362 27.197c0 1.256 1.017 2.273 2.273 2.273h36.203c1.257 0 2.273-1.017 2.273-2.273 0-1.256-1.017-2.272-2.273-2.272H53.636C52.379 24.925 51.362 25.941 51.362 27.197z" data-fill-palette-color="accent"></path><path fill="#3c83c5" d="M34.655 48.864c5.953 0 10.795-4.843 10.795-10.796s-4.843-10.795-10.795-10.795-10.795 4.843-10.795 10.795S28.702 48.864 34.655 48.864zM34.655 31.818c3.447 0 6.25 2.803 6.25 6.25s-2.803 6.25-6.25 6.25-6.25-2.803-6.25-6.25S31.208 31.818 34.655 31.818z" data-fill-palette-color="accent"></path></svg></g></svg></g></svg></g><defs></defs></svg><rect width="395.52" height="122.73170486968411" fill="none" stroke="none" visibility="hidden"></rect></g></svg></g></svg>